<svg width="105" height="105" viewBox="0 0 105 105" fill="none" xmlns="http://www.w3.org/2000/svg">
<path d="M97.9775 50C97.9775 75.3924 77.3929 95.977 52.0005 95.977C26.608 95.977 6.02344 75.3924 6.02344 50C6.02344 24.6076 26.608 4.02299 52.0005 4.02299C77.3929 4.02299 97.9775 24.6076 97.9775 50Z" fill="#F5C75E"/>
<path d="M93.954 50C93.954 26.8294 75.1706 8.04598 52 8.04598C28.8294 8.04598 10.046 26.8294 10.046 50C10.046 73.1706 28.8294 91.954 52 91.954C75.1706 91.954 93.954 73.1706 93.954 50ZM102 50C102 77.6142 79.6142 100 52 100C24.3858 100 2 77.6142 2 50C2 22.3858 24.3858 0 52 0C79.6142 0 102 22.3858 102 50Z" fill="#DC9900"/>
<path d="M67.1748 34.3677C69.2731 36.771 70.3222 39.5903 70.3223 42.8257C70.3223 45.9749 69.5077 48.4995 67.8789 50.3999C66.25 52.3003 64.2683 53.5765 61.9336 54.2281C59.5989 54.8796 57.2912 55.3958 55.0107 55.7759C52.6759 56.156 50.6934 56.6722 49.0645 57.3238C48.1745 57.6502 47.5286 58.0825 47.125 58.6197L47.1143 58.6206L38.8809 68.1187C36.6573 65.7705 35.5449 62.9597 35.5449 59.6851C35.545 56.4274 36.3595 53.8214 37.9883 51.8667C39.6172 49.912 41.5988 48.6082 43.9336 47.9566C46.214 47.305 48.5217 46.8165 50.8564 46.4908C53.1369 46.1107 55.0918 45.6222 56.7207 45.0249C58.1346 44.3979 58.8275 43.8755 59.1357 43.4097L59.1836 43.3911L67.1748 34.3677Z" fill="#DC9900"/>
<path d="M53.0791 28.7356C58.8889 28.7356 63.2058 30.202 66.0293 33.1341C66.478 33.6001 66.9058 34.1448 67.4453 34.6946L66.1729 36.1604L59.1836 43.3909C59.471 41.6668 58.6988 40.464 57.5586 39.4866C56.4727 38.5094 54.9526 38.0208 52.998 38.0208C51.1519 38.0208 49.7123 38.428 48.6807 39.2425C47.6493 40.0026 47.1338 40.9798 47.1338 42.1741C47.1338 43.4773 47.9482 44.4274 49.5771 45.0247C51.2061 45.622 53.1609 46.1104 55.4414 46.4905C57.7761 46.8163 60.0838 47.3058 62.3643 47.9573C64.699 48.6089 66.6807 49.9119 68.3096 51.8665C69.9384 53.8211 70.7529 56.4272 70.7529 59.6849C70.7529 63.6486 69.1241 66.934 65.8662 69.5403C62.6627 72.0923 58.2645 73.3685 52.6719 73.3685C46.4519 73.3684 41.7592 71.2823 38.8721 68.1985L47.0264 58.8089C46.2841 60.4266 46.687 61.4894 47.7852 62.5354C48.9797 63.5671 50.7175 64.0833 52.998 64.0833C55.1697 64.0833 56.8256 63.7305 57.9658 63.0247C59.106 62.3189 59.6767 61.3686 59.6768 60.1741C59.6768 58.8711 58.8621 57.9208 57.2334 57.3235C55.6045 56.672 53.6219 56.1558 51.2871 55.7757C49.0067 55.3956 46.6989 54.8803 44.3643 54.2288C42.0296 53.5772 40.0478 52.301 38.4189 50.4007C36.79 48.5003 35.9756 45.9747 35.9756 42.8255C35.9757 38.862 37.5501 35.5227 40.6992 32.8079C43.8485 30.093 47.9752 28.7357 53.0791 28.7356Z" fill="white"/>
<rect x="47.4014" y="25.9885" width="12.069" height="7.47126" fill="white"/>
<rect x="47.4014" y="68.2644" width="12.069" height="7.47126" fill="white"/>
</svg>
