<svg width="150" height="46" viewBox="0 0 150 46" fill="none" xmlns="http://www.w3.org/2000/svg">
<g clip-path="url(#clip0_159_65983)">
<g clip-path="url(#clip1_159_65983)">
<path d="M41.2828 20.9759C38.6285 19.4119 32.3613 16.2497 29.5979 14.7316L28.7198 14.2696V13.2596C28.6796 11.974 28.8202 0.983472 28.6882 0.0135526C35.4978 0.0135526 45.6963 0.0250309 52.4312 0.00494385C49.0508 6.3582 44.6489 14.6542 41.2828 20.9759Z" fill="#FEFEFE"/>
<path d="M25.7421 15.0397L13.3627 22.4776L0.501221 1.07053L25.7421 15.0397Z" fill="#FEFEFE"/>
<path d="M26.9962 13.7713L2.11401 0.000152588L27.0651 0.00876134C27.0364 0.0919792 27.0192 0.180936 27.0192 0.269893L26.9962 13.7684V13.7713Z" fill="#FEFEFE"/>
<path d="M27.1073 45.3576L14.2458 23.9505L26.6252 16.5126L27.1073 45.3576Z" fill="#FEFEFE"/>
<path d="M40.2584 22.3237C40.3387 22.3639 40.4248 22.3926 40.5109 22.407L28.803 44.4396L28.3267 16.0049L40.2555 22.3237H40.2584Z" fill="#FEFEFE"/>
</g>
<path d="M57.1255 12.4962H59.7565C59.9588 15.3547 61.7548 17.0495 64.5878 17.0495C67.5221 17.0495 69.2423 15.8354 69.2423 13.7358C69.2423 11.1554 66.7633 10.776 64.1326 10.3714C61.0718 9.89073 57.6568 9.35965 57.6568 5.41334C57.6568 1.92252 60.2117 0 64.5372 0C68.5845 0 71.1394 2.40321 71.4178 6.42536H68.8123C68.6604 3.74376 67.0162 2.17546 64.4362 2.17546C61.8558 2.17546 60.3382 3.28851 60.3382 5.23622C60.3382 7.43713 62.6147 7.7911 65.1192 8.17076C68.3064 8.67665 71.9489 9.23318 71.9489 13.508C71.9489 17.1001 69.1917 19.2249 64.5372 19.2249C60.1863 19.2249 57.4291 16.7459 57.1255 12.4962Z" fill="#FEFEFE"/>
<path d="M85.2026 13.028H75.7419C75.843 15.684 77.1583 17.2523 79.258 17.2523C81.1046 17.2523 82.3948 16.2405 82.7236 14.5205H85.2026C84.7726 17.48 82.5717 19.2254 79.258 19.2254C75.489 19.2254 73.2881 16.797 73.2881 12.6738C73.2881 8.55066 75.489 6.12225 79.258 6.12225C83.0017 6.12225 85.2026 8.55066 85.2026 12.6738L85.2026 13.028ZM75.7671 11.9654H82.6981C82.4958 9.51179 81.2563 8.09516 79.2579 8.09516C77.2344 8.09516 75.9694 9.51179 75.7671 11.9654Z" fill="#FEFEFE"/>
<path d="M86.5681 12.6738C86.5681 8.55066 88.8955 6.12225 92.8164 6.12225C96.0036 6.12225 98.1284 7.81703 98.7102 10.7261H96.2059C95.7 9.10718 94.5363 8.17125 92.8164 8.17125C90.489 8.17125 89.1484 9.84057 89.1484 12.6738C89.1484 15.5069 90.489 17.1764 92.8164 17.1764C94.6122 17.1764 95.8265 16.1647 96.2565 14.3686H98.7862C98.2549 17.4548 96.1046 19.2254 92.8164 19.2254C88.8955 19.2254 86.5681 16.797 86.5681 12.6738Z" fill="#FEFEFE"/>
<path d="M109.03 6.37494H111.56V18.9722H109.03V14.5961H108.979C108.979 17.5049 107.462 19.2252 104.881 19.2252C102.124 19.2252 100.505 17.3281 100.505 14.1406V6.37494H103.035V14.0648C103.035 16.0379 104.072 17.1762 105.843 17.1762C107.841 17.1762 109.03 15.7091 109.03 13.2301L109.03 6.37494Z" fill="#FEFEFE"/>
<path d="M122.917 6.50167L122.158 8.85399C121.678 8.57586 120.995 8.39874 120.337 8.39874C118.162 8.39874 116.897 10.0935 116.897 12.9774V18.9725H114.367V6.3752H116.897V11.3078H116.947C116.947 8.04477 118.44 6.12225 120.969 6.12225C121.678 6.12225 122.411 6.27392 122.917 6.50167Z" fill="#FEFEFE"/>
<path d="M124.028 3.74426V0.886047H126.558V3.74426H124.028ZM124.028 18.9725V6.37521H126.558V18.9725H124.028Z" fill="#FEFEFE"/>
<path d="M132.551 8.22103V15.0758C132.551 16.4164 133.36 17.1752 134.751 17.1752C135.358 17.1752 136.016 17.0234 136.522 16.7705V18.6929C135.814 19.0217 134.853 19.2241 133.942 19.2241C131.488 19.2241 130.021 17.7823 130.021 15.3287V8.22103H128.073V6.37453H130.198V2.07449H132.728V6.37453H136.699V8.22103H132.551Z" fill="#FEFEFE"/>
<path d="M146.617 6.37494H149.323L143.809 24.7902H141.102L142.848 18.9722H140.748L136.954 6.37494H139.686L143.126 18.7951H143.177L146.617 6.37494Z" fill="#FEFEFE"/>
<path d="M71.342 44.2665L69.8747 39.5614H61.2993L59.8323 44.2665H57.1255L63.3483 25.5475H68.0283L74.2004 44.2665H71.342ZM61.9571 37.4366H69.2171L65.625 25.8004H65.5744L61.9571 37.4366Z" fill="#FEFEFE"/>
<path d="M75.6909 44.2673V24.7894H78.2204V44.2673H75.6909Z" fill="#FEFEFE"/>
<path d="M81.2815 44.2673V24.7894H83.8109V44.2673H81.2815Z" fill="#FEFEFE"/>
<path d="M86.8711 29.0374V26.1792H89.4005V29.0374H86.8711ZM86.8711 44.2656V31.6684H89.4005V44.2656H86.8711Z" fill="#FEFEFE"/>
<path d="M101.617 31.6699H104.147V44.2671H101.617V40.0681H101.567C101.567 42.8505 99.8719 44.5201 96.9879 44.5201C93.6997 44.5201 91.7517 42.0917 91.7517 37.9685C91.7517 33.8453 93.6997 31.4169 96.9879 31.4169C99.8719 31.4169 101.567 33.0863 101.567 35.8689H101.617V31.6699ZM101.794 37.9685C101.794 35.2365 100.428 33.4659 98.0758 33.4659C95.7232 33.4659 94.3572 35.1352 94.3572 37.9685C94.3572 40.8015 95.7232 42.4711 98.0758 42.4711C100.428 42.4711 101.794 40.7005 101.794 37.9685Z" fill="#FEFEFE"/>
<path d="M118.539 36.5012V44.2672H116.01V36.5773C116.01 34.6042 114.922 33.4659 113.075 33.4659C111.001 33.4659 109.762 34.9329 109.762 37.412V44.2672H107.232V31.6699H109.762V36.046H109.812C109.812 33.1369 111.381 31.4169 114.037 31.4169C116.87 31.4169 118.539 33.314 118.539 36.5012Z" fill="#FEFEFE"/>
<path d="M120.764 37.9685C120.764 33.8453 123.091 31.4169 127.012 31.4169C130.199 31.4169 132.324 33.1117 132.906 36.0208H130.401C129.896 34.4019 128.732 33.4659 127.012 33.4659C124.685 33.4659 123.344 35.1353 123.344 37.9685C123.344 40.8015 124.685 42.4711 127.012 42.4711C128.808 42.4711 130.022 41.4593 130.452 39.6633H132.982C132.45 42.7495 130.3 44.5201 127.012 44.5201C123.091 44.5201 120.764 42.0917 120.764 37.9685Z" fill="#FEFEFE"/>
<path d="M146.286 38.3227H136.825C136.926 40.9786 138.242 42.5469 140.341 42.5469C142.188 42.5469 143.478 41.5352 143.807 39.8152H146.286C145.856 42.7747 143.655 44.5201 140.341 44.5201C136.572 44.5201 134.372 42.0917 134.372 37.9685C134.372 33.8453 136.572 31.4169 140.341 31.4169C144.085 31.4169 146.286 33.8453 146.286 37.9685L146.286 38.3227ZM136.851 37.2601H143.782C143.579 34.8065 142.34 33.3898 140.341 33.3898C138.318 33.3898 137.053 34.8065 136.851 37.2601Z" fill="#FEFEFE"/>
</g>
<defs>
<clipPath id="clip0_159_65983">
<rect width="149" height="46" fill="white" transform="translate(0.5)"/>
</clipPath>
<clipPath id="clip1_159_65983">
<rect width="51.9309" height="45.3566" fill="white" transform="translate(0.5 0.00106812)"/>
</clipPath>
</defs>
</svg>
