<svg width="1000" height="1220" viewBox="0 0 1000 1220" fill="none" xmlns="http://www.w3.org/2000/svg">
<path d="M841.176 384.898C841.176 580.368 683.19 738.828 488.305 738.828C293.419 738.828 135.434 580.368 135.434 384.898C135.434 189.428 293.419 30.9688 488.305 30.9688C683.19 30.9688 841.176 189.428 841.176 384.898Z" fill="#F5C75E"/>
<path d="M810.295 384.899C810.295 206.532 666.133 61.9377 488.3 61.9377C310.467 61.9377 166.305 206.532 166.305 384.899C166.305 563.265 310.467 707.859 488.3 707.859C666.133 707.859 810.295 563.265 810.295 384.899ZM872.047 384.899C872.047 597.472 700.238 769.797 488.3 769.797C276.362 769.797 104.553 597.472 104.553 384.899C104.553 172.325 276.362 0 488.3 0C700.238 0 872.047 172.325 872.047 384.899Z" fill="#DC9900"/>
<path d="M604.764 264.564C620.867 283.065 628.921 304.767 628.921 329.672C628.921 353.915 622.67 373.352 610.168 387.981C597.666 402.61 582.455 412.433 564.536 417.449C546.617 422.465 528.905 426.435 511.402 429.361C493.483 432.287 478.272 436.257 465.771 441.273C458.931 443.788 453.962 447.117 450.864 451.258L450.8 451.26L387.611 524.389C370.54 506.312 362.005 484.667 362.005 459.456C362.005 434.377 368.256 414.313 380.758 399.266C393.26 384.219 408.47 374.187 426.39 369.171C443.892 364.156 461.603 360.394 479.522 357.886C497.025 354.96 512.027 351.198 524.529 346.6C535.386 341.771 540.706 337.751 543.07 334.164L543.429 334.021L604.764 264.564Z" fill="#DC9900"/>
<path d="M496.584 221.206C541.174 221.206 574.304 232.492 595.974 255.062C599.42 258.652 602.695 262.86 606.839 267.095L597.13 278.309L543.435 334.021C545.64 320.749 539.715 311.49 530.964 303.967C522.629 296.443 510.961 292.681 495.959 292.681C481.79 292.681 470.746 295.815 462.828 302.085C454.91 307.937 450.951 315.461 450.951 324.656C450.951 334.688 457.202 342.003 469.704 346.601C482.206 351.198 497.209 354.96 514.712 357.886C532.631 360.394 550.342 364.156 567.845 369.172C585.764 374.188 600.975 384.219 613.477 399.267C625.978 414.314 632.229 434.376 632.229 459.455C632.229 489.968 619.728 515.256 594.724 535.319C570.137 554.964 536.381 564.787 493.458 564.787C445.723 564.787 409.701 548.737 387.542 525L450.091 452.76C444.429 465.182 447.535 473.359 455.952 481.399C465.12 489.341 478.456 493.312 495.959 493.312C512.628 493.311 525.339 490.595 534.09 485.161C542.841 479.727 547.217 472.413 547.217 463.218C547.217 453.186 540.966 445.871 528.464 441.273C515.962 436.258 500.751 432.286 482.831 429.36C465.329 426.434 447.618 422.464 429.698 417.448C411.779 412.432 396.568 402.61 384.066 387.98C371.564 373.351 365.313 353.915 365.313 329.672C365.314 299.159 377.399 273.454 401.569 252.555C425.74 231.656 457.411 221.206 496.584 221.206Z" fill="white"/>
<rect x="453.001" y="200.059" width="92.6287" height="57.5136" fill="white"/>
<rect x="453.001" y="525.497" width="92.6287" height="57.5136" fill="white"/>
<path d="M830.694 1131.16C830.694 1153.56 850.054 1167.23 881.941 1167.23C913.829 1167.23 933.568 1153.56 933.568 1130.78C933.568 1108.39 914.208 1095.1 881.941 1095.1C850.054 1095.1 830.694 1108.77 830.694 1131.16ZM837.147 1022.22C837.147 1041.2 852.711 1051.45 881.941 1051.45C911.171 1051.45 927.115 1041.2 927.115 1021.84C927.115 1001.72 910.412 989.948 882.321 989.948C854.23 989.948 837.147 1001.72 837.147 1022.22ZM764.262 1139.14C764.262 1103.83 786.279 1080.3 823.101 1071.94C791.973 1064.35 773.752 1044.61 773.752 1013.48C773.752 964.894 817.787 937.562 881.941 937.562C946.475 937.562 990.13 964.894 990.13 1013.48C990.13 1044.99 972.289 1064.35 940.401 1072.32C977.983 1080.68 1000 1103.45 1000 1139.14C1000 1190.38 953.688 1219.61 882.321 1219.61C810.954 1219.61 764.262 1190.38 764.262 1139.14Z" fill="#F5C75E"/>
<path d="M569.817 1161.15H601.704C654.85 1161.15 679.904 1134.2 679.904 1078.4C679.904 1022.97 654.85 996.023 601.704 996.023H569.817V1161.15ZM505.283 1214.3V942.877H603.223C695.468 942.877 746.716 991.467 746.716 1078.78C746.716 1166.09 695.468 1214.3 602.843 1214.3H505.283Z" fill="#F5C75E"/>
<path d="M252.931 1117.88H320.122C323.538 1149.39 342.519 1167.23 374.786 1167.23C400.979 1167.23 417.682 1156.6 417.682 1137.24C417.682 1116.74 400.979 1110.29 358.083 1101.55C296.206 1089.03 258.625 1072.7 258.625 1020.32C258.625 970.968 298.484 937.562 365.296 937.562C438.181 937.562 476.901 978.94 480.318 1035.5H413.127C410.849 1008.55 393.387 989.948 364.916 989.948C341 989.948 325.436 1001.72 325.436 1019.18C325.436 1039.68 346.695 1046.13 382.758 1052.96C451.847 1065.11 484.114 1086.75 484.114 1134.96C484.114 1187.35 441.597 1219.61 374.406 1219.61C298.104 1219.61 255.208 1178.99 252.931 1117.88Z" fill="#F5C75E"/>
<path d="M0 1114.08V942.877H64.5339V1111.8C64.5339 1147.11 83.1349 1166.47 116.92 1166.47C150.326 1166.47 169.307 1147.11 169.307 1111.8V942.877H233.841V1114.08C233.841 1179.75 188.667 1219.61 116.92 1219.61C45.5534 1219.61 0 1179.75 0 1114.08Z" fill="#F5C75E"/>
</svg>
