<svg width="1000" height="1316" viewBox="0 0 1000 1316" fill="none" xmlns="http://www.w3.org/2000/svg">
<path d="M832.746 388.363C832.746 585.592 673.338 745.478 476.699 745.478C280.06 745.478 120.652 585.592 120.652 388.363C120.652 191.133 280.06 31.2476 476.699 31.2476C673.338 31.2476 832.746 191.133 832.746 388.363Z" fill="#F5C75E"/>
<path d="M801.588 388.363C801.588 208.391 656.128 62.4951 476.695 62.4951C297.262 62.4951 151.802 208.391 151.802 388.363C151.802 568.334 297.262 714.23 476.695 714.23C656.128 714.23 801.588 568.334 801.588 388.363ZM863.896 388.363C863.896 602.849 690.54 776.725 476.695 776.725C262.85 776.725 89.4941 602.849 89.4941 388.363C89.4941 173.876 262.85 0 476.695 0C690.54 0 863.896 173.876 863.896 388.363Z" fill="#DC9900"/>
<path d="M594.206 266.945C610.455 285.612 618.581 307.509 618.581 332.639C618.581 357.1 612.274 376.711 599.659 391.472C587.045 406.233 571.697 416.145 553.616 421.206C535.536 426.266 517.665 430.273 500.005 433.225C481.924 436.177 466.576 440.184 453.962 445.245C447.061 447.783 442.048 451.141 438.922 455.32L438.857 455.322L375.099 529.108C357.875 510.868 349.262 489.029 349.262 463.59C349.262 438.286 355.569 418.043 368.184 402.86C380.798 387.677 396.146 377.555 414.227 372.494C431.887 367.433 449.757 363.637 467.838 361.107C485.498 358.155 500.636 354.359 513.25 349.72C524.205 344.848 529.572 340.791 531.958 337.171L532.319 337.027L594.206 266.945Z" fill="#DC9900"/>
<path d="M485.052 223.197C530.043 223.197 563.472 234.584 585.337 257.358C588.814 260.979 592.118 265.225 596.299 269.498L586.494 280.823L532.324 337.027C534.549 323.635 528.571 314.293 519.741 306.702C511.332 299.11 499.558 295.315 484.421 295.315C470.125 295.315 458.981 298.478 450.992 304.804C443.003 310.709 439.009 318.3 439.009 327.579C439.009 337.7 445.316 345.081 457.931 349.72C470.545 354.359 485.683 358.155 503.343 361.107C521.423 363.637 539.294 367.433 556.954 372.494C575.035 377.555 590.383 387.677 602.997 402.86C615.611 418.043 621.919 438.286 621.919 463.59C621.919 494.378 609.304 519.894 584.075 540.137C559.267 559.959 525.208 569.87 481.898 569.87C433.734 569.87 397.387 553.676 375.029 529.726L438.142 456.833C432.427 469.368 435.561 477.619 444.055 485.732C453.305 493.745 466.761 497.751 484.421 497.751C501.24 497.751 514.064 495.01 522.895 489.528C531.725 484.045 536.141 476.665 536.141 467.386C536.141 457.264 529.833 449.884 517.219 445.245C504.604 440.184 489.256 436.177 471.176 433.225C453.516 430.273 435.645 426.266 417.564 421.206C399.484 416.145 384.136 406.233 371.521 391.472C358.907 376.711 352.6 357.1 352.6 332.639C352.6 301.852 364.794 275.915 389.182 254.828C413.57 233.74 445.526 223.197 485.052 223.197Z" fill="white"/>
<rect x="441.078" y="201.859" width="93.4623" height="58.0312" fill="white"/>
<rect x="441.078" y="530.227" width="93.4623" height="58.0312" fill="white"/>
<path d="M749.3 1230.39C749.3 1220.97 750.645 1212.36 753.337 1204.55C756.297 1196.75 760.469 1189.89 765.852 1183.97C771.234 1177.77 777.828 1172.66 785.633 1168.62C793.438 1164.59 802.185 1161.36 811.874 1158.94C795.188 1154.9 782.269 1147.77 773.118 1137.54C763.968 1127.04 759.392 1113.45 759.392 1096.76C759.392 1083.85 762.218 1072.41 767.87 1062.45C773.522 1052.49 781.327 1044.15 791.285 1037.42C801.243 1030.42 813.354 1025.17 827.619 1021.68C841.883 1017.91 857.627 1016.02 874.852 1016.02C891.808 1016.02 907.283 1017.91 921.278 1021.68C935.542 1025.17 947.653 1030.42 957.611 1037.42C967.839 1044.15 975.644 1052.63 981.026 1062.85C986.678 1072.81 989.504 1084.12 989.504 1096.76C989.504 1113.72 984.929 1127.31 975.778 1137.54C966.897 1147.77 953.843 1154.9 936.619 1158.94C956.535 1163.51 972.01 1171.85 983.045 1183.97C994.349 1195.81 1000 1211.15 1000 1229.99C1000 1243.98 996.905 1256.23 990.715 1266.72C984.794 1277.22 976.451 1286.1 965.685 1293.37C954.92 1300.64 941.867 1306.29 926.526 1310.32C911.185 1314.09 893.961 1315.98 874.852 1315.98C856.012 1315.98 838.788 1314.09 823.178 1310.32C807.837 1306.29 794.649 1300.64 783.615 1293.37C772.58 1286.1 764.102 1277.22 758.181 1266.72C752.26 1255.96 749.3 1243.85 749.3 1230.39ZM819.948 1221.51C819.948 1233.62 824.793 1243.18 834.481 1250.17C844.17 1256.9 857.493 1260.27 874.448 1260.27C891.673 1260.27 905.13 1256.9 914.819 1250.17C924.508 1243.18 929.352 1233.62 929.352 1221.51C929.352 1215.59 928.006 1210.34 925.315 1205.77C922.893 1200.92 919.394 1196.88 914.819 1193.65C910.243 1190.42 904.457 1188 897.459 1186.39C890.731 1184.5 883.195 1183.56 874.852 1183.56C865.97 1183.56 858.166 1184.5 851.437 1186.39C844.709 1188 838.922 1190.42 834.078 1193.65C829.502 1196.88 826.004 1200.92 823.581 1205.77C821.159 1210.34 819.948 1215.59 819.948 1221.51ZM826.811 1106.05C826.811 1110.89 827.888 1115.34 830.041 1119.37C832.194 1123.41 835.154 1126.77 838.922 1129.46C842.959 1131.89 847.938 1133.77 853.859 1135.12C859.78 1136.46 866.643 1137.14 874.448 1137.14C882.253 1137.14 889.116 1136.46 895.037 1135.12C900.958 1133.77 905.937 1131.75 909.974 1129.06C914.011 1126.37 916.972 1123.14 918.856 1119.37C921.009 1115.34 922.085 1110.63 922.085 1105.24C922.085 1094.75 917.914 1086.54 909.571 1080.62C901.496 1074.7 889.924 1071.74 874.852 1071.74C859.78 1071.74 847.938 1074.83 839.326 1081.02C830.983 1086.94 826.811 1095.28 826.811 1106.05Z" fill="#F5C75E"/>
<path d="M726.337 1310.32H664.167L662.956 1273.99C655.958 1287.98 646 1298.48 633.082 1305.47C620.432 1312.47 606.033 1315.97 589.885 1315.97C575.621 1315.97 562.568 1313.28 550.726 1307.9C539.153 1302.25 529.195 1294.31 520.852 1284.08C512.778 1273.85 506.453 1261.74 501.878 1247.75C497.302 1233.48 495.015 1217.6 495.015 1200.11C495.015 1182.61 497.302 1166.73 501.878 1152.47C506.453 1138.21 512.912 1126.1 521.255 1116.14C529.599 1105.91 539.557 1098.11 551.13 1092.72C562.702 1087.07 575.621 1084.24 589.885 1084.24C605.764 1084.24 619.894 1087.74 632.274 1094.74C644.924 1101.74 654.613 1111.7 661.341 1124.62V1014H726.337V1310.32ZM660.13 1199.7C660.13 1190.02 659.053 1181.4 656.9 1173.87C654.747 1166.06 651.517 1159.6 647.211 1154.49C642.905 1149.11 637.657 1145.07 631.467 1142.38C625.546 1139.42 618.683 1137.94 610.878 1137.94C603.342 1137.94 596.614 1139.42 590.693 1142.38C584.772 1145.07 579.658 1149.11 575.352 1154.49C571.315 1159.6 568.22 1165.93 566.067 1173.46C563.914 1181 562.837 1189.75 562.837 1199.7C562.837 1209.39 563.914 1218.14 566.067 1225.94C568.22 1233.75 571.315 1240.34 575.352 1245.73C579.658 1251.11 584.772 1255.28 590.693 1258.24C596.614 1260.93 603.342 1262.28 610.878 1262.28C618.683 1262.28 625.546 1260.93 631.467 1258.24C637.657 1255.28 642.905 1251.11 647.211 1245.73C651.517 1240.07 654.747 1233.48 656.9 1225.94C659.053 1218.14 660.13 1209.39 660.13 1199.7Z" fill="#F5C75E"/>
<path d="M269.795 1235.23H336.406C337.214 1246.27 341.116 1254.74 348.114 1260.67C355.111 1266.59 365.204 1269.55 378.391 1269.55C383.236 1269.55 387.677 1269.14 391.714 1268.34C396.02 1267.26 399.653 1265.91 402.614 1264.3C405.843 1262.41 408.266 1260.13 409.88 1257.44C411.764 1254.74 412.706 1251.51 412.706 1247.75C412.706 1243.44 411.361 1239.94 408.669 1237.25C405.978 1234.29 402.345 1232 397.769 1230.39C393.194 1228.5 387.677 1227.02 381.217 1225.95C374.758 1224.6 367.626 1223.39 359.821 1222.31C350.67 1220.97 340.982 1219.08 330.754 1216.66C320.796 1214.24 311.511 1210.74 302.899 1206.16C294.555 1201.32 287.692 1195 282.31 1187.19C276.927 1179.12 274.236 1168.62 274.236 1155.7C274.236 1144.94 276.254 1135.25 280.291 1126.64C284.597 1117.75 290.922 1110.22 299.265 1104.03C307.609 1097.57 317.836 1092.72 329.947 1089.49C342.327 1086 356.591 1084.25 372.74 1084.25C389.157 1084.25 403.556 1086.13 415.936 1089.9C428.316 1093.4 438.813 1098.51 447.425 1105.24C456.037 1111.97 462.766 1120.18 467.61 1129.86C472.724 1139.55 475.819 1150.59 476.895 1162.97H410.284C409.208 1152.74 405.305 1144.8 398.577 1139.15C392.117 1133.5 383.236 1130.67 371.932 1130.67C366.549 1130.67 361.974 1131.34 358.206 1132.69C354.438 1133.77 351.343 1135.25 348.921 1137.13C346.499 1138.75 344.615 1140.76 343.269 1143.19C342.193 1145.61 341.654 1148.3 341.654 1151.26C341.654 1155.57 343 1159.2 345.691 1162.16C348.383 1164.85 352.016 1167.14 356.591 1169.02C361.167 1170.91 366.549 1172.52 372.74 1173.87C378.93 1174.95 385.524 1176.02 392.521 1177.1C402.479 1178.44 412.572 1180.33 422.799 1182.75C433.295 1185.17 442.715 1188.81 451.058 1193.65C459.671 1198.23 466.668 1204.68 472.051 1213.03C477.703 1221.1 480.529 1231.73 480.529 1244.92C480.529 1256.76 478.107 1267.12 473.262 1276.01C468.687 1284.62 461.958 1292.02 453.077 1298.21C444.195 1304.13 433.43 1308.57 420.78 1311.53C408.131 1314.49 394.001 1315.97 378.391 1315.97C361.167 1315.97 345.826 1314.09 332.369 1310.32C319.181 1306.55 308.012 1301.3 298.862 1294.58C289.98 1287.58 283.117 1279.1 278.273 1269.14C273.428 1259.18 270.602 1247.88 269.795 1235.23Z" fill="#F5C75E"/>
<path d="M0 1203.73V1021.66H69.0335V1201.31C69.0335 1220.15 73.7434 1234.55 83.1632 1244.51C92.8521 1254.47 106.713 1259.45 124.745 1259.45C142.508 1259.45 156.099 1254.47 165.519 1244.51C175.208 1234.55 180.052 1220.15 180.052 1201.31V1021.66H249.086V1203.73C249.086 1221.23 246.125 1236.84 240.204 1250.56C234.283 1264.29 225.94 1276.13 215.175 1286.09C204.678 1295.78 191.625 1303.18 176.015 1308.29C160.674 1313.41 143.45 1315.96 124.341 1315.96C105.232 1315.96 88.0076 1313.41 72.6668 1308.29C57.5952 1303.18 44.6766 1295.78 33.9112 1286.09C23.1457 1276.13 14.8025 1264.29 8.8815 1250.56C2.9605 1236.84 0 1221.23 0 1203.73Z" fill="#F5C75E"/>
</svg>
