<svg width="300" height="301" viewBox="0 0 300 301" fill="none" xmlns="http://www.w3.org/2000/svg">
<rect x="24.8337" y="1.97485" width="251.325" height="296.43" fill="white"/>
<path d="M140.686 230.084V184.536H163.658V230.084H140.686ZM140.686 116.214V70.6663H163.658V116.214H140.686ZM255.546 275.631V25.1184H48.7989V275.631H255.546ZM25.827 298.405V2.34454H278.517V298.405H25.827Z" fill="#00B7AB"/>
<path d="M278.517 2.34463H25.8271V298.405H278.517V2.34463ZM255.546 25.1185V275.631H48.7989V25.1185H255.546ZM50.7857 273.662H253.559V27.0882H50.7857V273.662ZM163.658 184.536H140.686V230.084H163.658V184.536ZM163.658 70.6663H140.686V116.214H163.658V70.6663ZM165.645 232.053H138.7V182.566H165.645V232.053ZM165.645 118.184H138.7V68.6967H165.645V118.184ZM280.504 300.375H23.8403V0.375H280.504V300.375Z" fill="#00B7AB"/>
</svg>
