<svg width="1000" height="278" viewBox="0 0 1000 278" fill="none" xmlns="http://www.w3.org/2000/svg">
<mask id="mask0_338_173" style="mask-type:alpha" maskUnits="userSpaceOnUse" x="0" y="18" width="204" height="242">
<path d="M103.672 259.378C166.315 259.378 199.538 232.74 203.344 179.465H140.116C139.531 187.954 136.164 195.126 130.017 200.98C123.577 206.542 114.21 209.323 101.916 209.323C90.2073 209.323 81.2793 207.42 75.1322 203.615C68.985 199.809 63.515 192.75 63.515 189.168C61.9658 181.422 70.3023 176.099 79.0839 172.879C87.8655 169.366 98.5498 166.586 111.137 164.537C123.431 162.488 135.872 159.707 148.459 156.194C161.046 152.681 171.73 145.802 180.512 135.557C189.293 125.312 193.684 111.7 193.684 94.7227C193.684 73.3541 185.195 55.3518 168.217 40.7158C151.239 26.0797 128.993 18.7617 101.477 18.7617C70.1559 18.7617 46.8846 26.6652 31.6631 42.4721C16.4417 58.279 8.24552 76.2813 7.07463 96.479H67.2287C67.8142 88.5756 71.1804 81.9894 77.3276 76.7204C83.182 71.4514 91.3781 68.8169 101.916 68.8169C111.869 68.8169 119.626 71.0123 125.187 75.4031C130.749 79.5012 133.53 84.7702 133.53 91.2101C133.53 98.2354 129.139 103.358 120.357 106.578C111.576 109.798 101.038 112.432 88.7437 114.481C76.1567 116.238 63.7161 118.872 51.4218 122.385C38.8348 125.897 28.1505 132.923 19.3689 143.461C10.5873 153.999 -0.00012207 168.507 -0.00012207 186.07C-0.00012207 207.438 10.3213 227.788 27.8845 241.839C45.1551 255.597 73.5222 259.378 103.672 259.378Z" fill="#666666"/>
</mask>
<g mask="url(#mask0_338_173)">
<path d="M117.731 93.1301L156.46 28.0659L255.605 108.622L182.795 151.998L106.887 141.154L86.748 111.72L117.731 93.1301Z" fill="#ABABAB"/>
<path d="M29.4295 128.761L102.239 161.293L100.69 179.882L69.7074 186.079L32.5278 248.045L-21.6924 224.808V151.998L29.4295 128.761Z" fill="#ABABAB"/>
</g>
<path d="M130.133 21.9893C140.194 24.302 148.99 27.8573 156.522 32.6523L129.878 79.5439C128.625 78.2133 127.037 76.9681 125.106 75.4023C118.989 70.4414 108.86 68.8154 98.3232 68.8154C88.3714 68.8156 80.6142 71.0119 75.0527 75.4023C69.4917 79.5001 66.7114 84.769 66.7109 91.208C66.7109 98.2331 71.1007 103.358 79.8818 106.578C88.6634 109.798 99.2029 112.432 111.497 114.481C124.084 116.238 136.525 118.872 148.819 122.385C161.406 125.897 172.089 132.924 180.87 143.462C189.652 154 194.044 168.049 194.044 185.612C194.044 206.981 185.262 224.69 167.699 238.74C157.447 246.908 144.924 252.651 130.133 255.97V277.19H65.0684V256.685C52.2807 254.272 41.2826 250.24 32.0732 244.589L63.4346 190.417C65.3911 193.883 68.0888 196.995 71.2559 200.012C77.6955 205.573 86.0296 209.321 98.3232 209.321C110.031 209.321 118.959 207.42 125.106 203.615C131.253 199.81 134.329 194.687 134.329 188.248C134.329 181.223 129.937 176.097 121.155 172.877C112.374 169.365 101.69 166.584 89.1045 164.535C76.8105 162.486 64.369 159.706 51.7822 156.193C39.1954 152.681 28.51 145.801 19.7285 135.556C10.9474 125.311 6.55762 111.698 6.55762 94.7207C6.55802 73.3533 15.0449 55.3513 32.0215 40.7158C41.4214 32.6124 52.4377 26.7537 65.0684 23.1367V0H130.133V21.9893Z" fill="black"/>
<path d="M817.271 195.379C817.271 188.513 818.251 182.236 820.213 176.547C822.371 170.858 825.411 165.856 829.335 161.54C833.258 157.028 838.064 153.301 843.753 150.358C849.442 147.416 855.817 145.062 862.879 143.296C850.717 140.354 841.301 135.155 834.631 127.701C827.962 120.051 824.627 110.144 824.627 97.9819C824.627 88.5659 826.687 80.2288 830.806 72.9706C834.926 65.7124 840.614 59.6313 847.873 54.7271C855.131 49.6268 863.958 45.8015 874.355 43.2513C884.752 40.505 896.228 39.1318 908.782 39.1318C921.141 39.1318 932.42 40.505 942.621 43.2513C953.018 45.8015 961.845 49.6268 969.104 54.7271C976.558 59.6313 982.247 65.8105 986.17 73.2649C990.29 80.523 992.349 88.762 992.349 97.9819C992.349 110.34 989.015 120.247 982.345 127.701C975.871 135.155 966.357 140.354 953.803 143.296C968.319 146.631 979.598 152.712 987.641 161.54C995.88 170.171 1000 181.353 1000 195.084C1000 205.285 997.744 214.211 993.232 221.861C988.916 229.512 982.835 235.985 974.989 241.282C967.142 246.578 957.628 250.698 946.446 253.64C935.265 256.387 922.71 257.76 908.782 257.76C895.051 257.76 882.496 256.387 871.118 253.64C859.937 250.698 850.325 246.578 842.282 241.282C834.239 235.985 828.06 229.512 823.744 221.861C819.428 214.015 817.271 205.187 817.271 195.379ZM868.764 188.905C868.764 197.733 872.295 204.697 879.357 209.797C886.419 214.701 896.13 217.153 908.488 217.153C921.043 217.153 930.851 214.701 937.913 209.797C944.975 204.697 948.506 197.733 948.506 188.905C948.506 184.59 947.525 180.764 945.564 177.429C943.798 173.898 941.248 170.956 937.913 168.602C934.578 166.248 930.361 164.482 925.26 163.305C920.356 161.932 914.863 161.246 908.782 161.246C902.309 161.246 896.62 161.932 891.716 163.305C886.812 164.482 882.594 166.248 879.063 168.602C875.728 170.956 873.178 173.898 871.413 177.429C869.647 180.764 868.764 184.59 868.764 188.905ZM873.767 104.75C873.767 108.281 874.551 111.517 876.121 114.46C877.69 117.402 879.848 119.854 882.594 121.816C885.537 123.582 889.166 124.955 893.481 125.936C897.797 126.916 902.799 127.407 908.488 127.407C914.177 127.407 919.179 126.916 923.495 125.936C927.81 124.955 931.44 123.484 934.382 121.522C937.325 119.56 939.482 117.206 940.856 114.46C942.425 111.517 943.21 108.084 943.21 104.161C943.21 96.5106 940.169 90.5275 934.088 86.2119C928.203 81.8962 919.768 79.7384 908.782 79.7384C897.797 79.7384 889.166 81.9943 882.888 86.5061C876.807 90.8218 873.767 96.903 873.767 104.75Z" fill="black"/>
<path d="M800.534 253.636H755.22L754.337 227.154C749.236 237.355 741.978 245.005 732.562 250.105C723.342 255.206 712.847 257.756 701.077 257.756C690.681 257.756 681.167 255.794 672.535 251.871C664.1 247.751 656.842 241.964 650.761 234.51C644.876 227.056 640.266 218.228 636.931 208.028C633.596 197.631 631.929 186.057 631.929 173.306C631.929 160.555 633.596 148.981 636.931 138.585C640.266 128.188 644.974 119.36 651.055 112.102C657.136 104.648 664.394 98.9589 672.829 95.0355C681.265 90.916 690.681 88.8563 701.077 88.8563C712.651 88.8563 722.95 91.4065 731.974 96.5068C741.194 101.607 748.256 108.865 753.16 118.281V37.6567H800.534V253.636ZM752.277 173.012C752.277 165.95 751.492 159.672 749.923 154.18C748.354 148.491 746 143.783 742.861 140.056C739.722 136.132 735.897 133.19 731.385 131.228C727.07 129.07 722.067 127.992 716.379 127.992C710.886 127.992 705.982 129.07 701.666 131.228C697.35 133.19 693.623 136.132 690.484 140.056C687.542 143.783 685.286 148.393 683.717 153.886C682.147 159.378 681.363 165.754 681.363 173.012C681.363 180.074 682.147 186.449 683.717 192.138C685.286 197.827 687.542 202.633 690.484 206.556C693.623 210.48 697.35 213.52 701.666 215.678C705.982 217.64 710.886 218.621 716.379 218.621C722.067 218.621 727.07 217.64 731.385 215.678C735.897 213.52 739.722 210.48 742.861 206.556C746 202.437 748.354 197.631 749.923 192.138C751.492 186.449 752.277 180.074 752.277 173.012Z" fill="black"/>
<path d="M467.771 198.907H516.323C516.911 206.95 519.756 213.129 524.856 217.445C529.956 221.76 537.313 223.918 546.925 223.918C550.456 223.918 553.693 223.624 556.635 223.036C559.774 222.251 562.422 221.27 564.58 220.093C566.934 218.72 568.699 217.052 569.876 215.091C571.249 213.129 571.936 210.775 571.936 208.029C571.936 204.89 570.955 202.34 568.994 200.378C567.032 198.22 564.384 196.553 561.049 195.376C557.714 194.003 553.693 192.924 548.985 192.139C544.277 191.158 539.078 190.276 533.389 189.491C526.72 188.51 519.658 187.137 512.203 185.371C504.945 183.606 498.177 181.056 491.9 177.721C485.819 174.19 480.817 169.58 476.893 163.891C472.97 158.006 471.008 150.356 471.008 140.94C471.008 133.093 472.479 126.031 475.422 119.754C478.561 113.28 483.171 107.788 489.252 103.276C495.333 98.5677 502.787 95.0367 511.615 92.6827C520.638 90.1325 531.035 88.8574 542.805 88.8574C554.771 88.8574 565.266 90.2306 574.29 92.9769C583.314 95.5271 590.964 99.2543 597.242 104.158C603.519 109.063 608.423 115.046 611.954 122.108C615.681 129.17 617.937 137.213 618.722 146.236H570.171C569.386 138.782 566.541 132.995 561.637 128.875C556.929 124.756 550.456 122.696 542.217 122.696C538.293 122.696 534.959 123.187 532.212 124.167C529.466 124.952 527.21 126.031 525.445 127.404C523.679 128.581 522.306 130.052 521.325 131.818C520.54 133.583 520.148 135.545 520.148 137.703C520.148 140.842 521.129 143.49 523.091 145.648C525.052 147.609 527.7 149.277 531.035 150.65C534.37 152.023 538.293 153.2 542.805 154.181C547.317 154.966 552.123 155.75 557.224 156.535C564.482 157.516 571.838 158.889 579.292 160.654C586.943 162.42 593.809 165.068 599.89 168.599C606.167 171.934 611.268 176.642 615.191 182.723C619.31 188.608 621.37 196.357 621.37 205.969C621.37 214.6 619.605 222.153 616.074 228.626C612.739 234.904 607.835 240.298 601.361 244.81C594.888 249.126 587.041 252.362 577.821 254.52C568.601 256.678 558.302 257.757 546.925 257.757C534.37 257.757 523.189 256.384 513.38 253.638C503.768 250.891 495.627 247.066 488.957 242.162C482.484 237.061 477.482 230.882 473.951 223.624C470.42 216.366 468.36 208.127 467.771 198.907Z" fill="black"/>
<path d="M271.125 175.949V43.2422H321.442V174.184C321.442 187.915 324.875 198.41 331.741 205.668C338.803 212.926 348.905 216.556 362.048 216.556C374.995 216.556 384.902 212.926 391.768 205.668C398.83 198.41 402.361 187.915 402.361 174.184V43.2422H452.677V175.949C452.677 188.7 450.52 200.078 446.204 210.082C441.888 220.087 435.807 228.718 427.96 235.976C420.31 243.038 410.796 248.433 399.418 252.16C388.237 255.887 375.682 257.751 361.754 257.751C347.826 257.751 335.272 255.887 324.09 252.16C313.105 248.433 303.689 243.038 295.842 235.976C287.995 228.718 281.914 220.087 277.599 210.082C273.283 200.078 271.125 188.7 271.125 175.949Z" fill="black"/>
</svg>
