<svg width="1077" height="278" viewBox="0 0 1077 278" fill="none" xmlns="http://www.w3.org/2000/svg">
<mask id="mask0_336_172" style="mask-type:alpha" maskUnits="userSpaceOnUse" x="0" y="18" width="204" height="242">
<path d="M103.672 259.378C166.315 259.378 199.538 232.74 203.344 179.465H140.116C139.531 187.954 136.164 195.126 130.017 200.98C123.577 206.542 114.21 209.323 101.916 209.323C90.2073 209.323 81.2793 207.42 75.1322 203.615C68.985 199.809 63.515 192.75 63.515 189.168C61.9658 181.422 70.3022 176.099 79.0839 172.879C87.8655 169.366 98.5498 166.586 111.137 164.537C123.431 162.488 135.872 159.707 148.459 156.194C161.046 152.681 171.73 145.802 180.512 135.557C189.293 125.312 193.684 111.7 193.684 94.7227C193.684 73.3541 185.195 55.3518 168.217 40.7158C151.239 26.0797 128.993 18.7617 101.477 18.7617C70.1559 18.7617 46.8846 26.6652 31.6631 42.4721C16.4417 58.279 8.24551 76.2813 7.07463 96.479H67.2287C67.8142 88.5756 71.1804 81.9894 77.3276 76.7204C83.182 71.4514 91.3781 68.8169 101.916 68.8169C111.869 68.8169 119.626 71.0123 125.187 75.4031C130.749 79.5012 133.53 84.7702 133.53 91.2101C133.53 98.2354 129.139 103.358 120.357 106.578C111.576 109.798 101.038 112.432 88.7437 114.481C76.1567 116.238 63.7161 118.872 51.4218 122.385C38.8348 125.897 28.1505 132.923 19.3689 143.461C10.5873 153.999 -0.00012207 168.507 -0.00012207 186.07C-0.00012207 207.438 10.3213 227.788 27.8845 241.839C45.1551 255.597 73.5222 259.378 103.672 259.378Z" fill="#666666"/>
</mask>
<g mask="url(#mask0_336_172)">
<path d="M117.731 93.1301L156.46 28.0659L255.605 108.622L182.795 151.998L106.887 141.154L86.748 111.72L117.731 93.1301Z" fill="#666666"/>
<path d="M29.4295 128.761L102.239 161.293L100.69 179.882L69.7074 186.079L32.5278 248.045L-21.6924 224.808V151.998L29.4295 128.761Z" fill="#666666"/>
</g>
<path d="M130.133 21.9893C140.194 24.302 148.99 27.8573 156.522 32.6523L129.878 79.5439C128.625 78.2133 127.037 76.9681 125.106 75.4023C118.989 70.4414 108.86 68.8154 98.3232 68.8154C88.3714 68.8156 80.6142 71.0119 75.0527 75.4023C69.4917 79.5001 66.7114 84.769 66.7109 91.208C66.7109 98.2331 71.1007 103.358 79.8818 106.578C88.6634 109.798 99.2029 112.432 111.497 114.481C124.084 116.238 136.525 118.872 148.819 122.385C161.406 125.897 172.089 132.924 180.87 143.462C189.652 154 194.044 168.049 194.044 185.612C194.044 206.981 185.262 224.69 167.699 238.74C157.447 246.908 144.924 252.651 130.133 255.97V277.19H65.0684V256.685C52.2807 254.272 41.2826 250.24 32.0732 244.589L63.4346 190.417C65.3911 193.883 68.0888 196.995 71.2559 200.012C77.6955 205.573 86.0296 209.321 98.3232 209.321C110.031 209.321 118.959 207.42 125.106 203.615C131.253 199.81 134.329 194.687 134.329 188.248C134.329 181.223 129.937 176.097 121.155 172.877C112.374 169.365 101.69 166.584 89.1045 164.535C76.8105 162.486 64.369 159.706 51.7822 156.193C39.1954 152.681 28.51 145.801 19.7285 135.556C10.9474 125.311 6.55762 111.698 6.55762 94.7207C6.55802 73.3533 15.0449 55.3513 32.0215 40.7158C41.4214 32.6124 52.4377 26.7537 65.0684 23.1367V0H130.133V21.9893Z" fill="white"/>
<path d="M944.771 180.203C944.771 197.695 959.891 208.368 984.795 208.368C1009.7 208.368 1025.12 197.695 1025.12 179.906C1025.12 162.414 1010 152.038 984.795 152.038C959.891 152.038 944.771 162.711 944.771 180.203ZM949.811 95.1142C949.811 109.938 961.967 117.943 984.795 117.943C1007.62 117.943 1020.08 109.938 1020.08 94.8177C1020.08 79.1045 1007.03 69.9137 985.092 69.9137C963.153 69.9137 949.811 79.1045 949.811 95.1142ZM892.888 186.429C892.888 158.857 910.083 140.475 938.842 133.953C914.53 128.023 900.3 112.606 900.3 88.2953C900.3 50.3463 934.691 29 984.795 29C1035.2 29 1069.29 50.3463 1069.29 88.2953C1069.29 112.903 1055.36 128.023 1030.45 134.249C1059.8 140.772 1077 158.56 1077 186.429C1077 226.453 1040.83 249.282 985.092 249.282C929.354 249.282 892.888 226.453 892.888 186.429Z" fill="white"/>
<path d="M741.028 203.625H765.932C807.439 203.625 827.006 182.575 827.006 138.993C827.006 95.7074 807.439 74.6576 765.932 74.6576H741.028V203.625ZM690.627 245.131V33.1509H767.118C839.162 33.1509 879.186 71.0999 879.186 139.289C879.186 207.479 839.162 245.131 766.821 245.131H690.627Z" fill="white"/>
<path d="M493.539 169.826H546.015C548.684 194.434 563.507 208.368 588.708 208.368C609.165 208.368 622.21 200.067 622.21 184.947C622.21 168.937 609.165 163.897 575.663 157.078C527.337 147.294 497.986 134.546 497.986 93.6318C497.986 55.0899 529.116 29 581.296 29C638.22 29 668.46 61.3159 671.128 105.491H618.652C616.873 84.4411 603.235 69.9137 581 69.9137C562.322 69.9137 550.166 79.1045 550.166 92.7424C550.166 108.752 566.769 113.792 594.934 119.129C648.893 128.616 674.093 145.515 674.093 183.168C674.093 224.081 640.888 249.282 588.411 249.282C528.82 249.282 495.318 217.559 493.539 169.826Z" fill="white"/>
<path d="M296 166.862V33.1509H346.401V165.083C346.401 192.655 360.928 207.775 387.315 207.775C413.405 207.775 428.228 192.655 428.228 165.083V33.1509H478.629V166.862C478.629 218.152 443.349 249.282 387.315 249.282C331.577 249.282 296 218.152 296 166.862Z" fill="white"/>
</svg>
