<svg width="1000" height="278" viewBox="0 0 1000 278" fill="none" xmlns="http://www.w3.org/2000/svg">
<mask id="mask0_336_172" style="mask-type:alpha" maskUnits="userSpaceOnUse" x="0" y="18" width="204" height="242">
<path d="M103.673 259.378C166.316 259.378 199.539 232.74 203.345 179.465H140.117C139.532 187.954 136.165 195.126 130.018 200.98C123.578 206.542 114.211 209.323 101.917 209.323C90.2082 209.323 81.2803 207.42 75.1331 203.615C68.986 199.809 63.5159 192.75 63.5159 189.168C61.9668 181.422 70.3032 176.099 79.0849 172.879C87.8665 169.366 98.5508 166.585 111.138 164.536C123.432 162.487 135.873 159.707 148.46 156.194C161.047 152.681 171.731 145.802 180.513 135.557C189.294 125.312 193.685 111.7 193.685 94.7226C193.685 73.354 185.196 55.3517 168.218 40.7156C151.24 26.0796 128.994 18.7616 101.478 18.7616C70.1569 18.7616 46.8856 26.6651 31.6641 42.472C16.4427 58.2789 8.2465 76.2812 7.07561 96.4789H67.2297C67.8151 88.5754 71.1814 81.9892 77.3285 76.7203C83.183 71.4513 91.3791 68.8168 101.917 68.8168C111.87 68.8168 119.627 71.0122 125.188 75.403C130.75 79.5011 133.531 84.7701 133.531 91.2099C133.531 98.2352 129.14 103.358 120.358 106.578C111.577 109.798 101.039 112.432 88.7446 114.481C76.1577 116.238 63.717 118.872 51.4228 122.385C38.8358 125.897 28.1515 132.923 19.3699 143.461C10.5883 153.998 0.000861404 168.506 0.000861404 186.07C0.000861404 207.438 10.3223 227.788 27.8855 241.839C45.156 255.597 73.5232 259.378 103.673 259.378Z" fill="#D9D9D9"/>
</mask>
<g mask="url(#mask0_336_172)">
<path d="M117.732 93.13L156.461 28.0658L255.606 108.622L182.796 151.998L106.888 141.154L86.749 111.72L117.732 93.13Z" fill="black"/>
<path d="M29.4305 128.76L102.24 161.293L100.691 179.882L69.7083 186.079L32.5288 248.045L-21.6914 224.808V151.998L29.4305 128.76Z" fill="black"/>
</g>
<path d="M98.7632 18.7614C122.731 18.7614 141.983 23.3957 156.523 32.6523L129.879 79.5442C128.626 78.2135 127.038 76.968 125.108 75.4021C118.991 70.4412 108.862 68.8152 98.3245 68.8152C88.3726 68.8153 80.6155 71.0116 75.054 75.4021C69.4927 79.4999 66.7126 84.769 66.7122 91.2082C66.7122 98.2334 71.1016 103.359 79.8829 106.579C88.6646 109.799 99.204 112.433 111.498 114.482C124.085 116.238 136.526 118.872 148.82 122.385C161.407 125.898 172.09 132.924 180.871 143.462C189.653 154 194.045 168.049 194.045 185.612C194.045 206.981 185.263 224.69 167.7 238.74C150.43 252.498 126.72 259.378 96.5696 259.379C69.6283 259.379 48.1324 254.443 32.0742 244.589L63.4353 190.417C65.3919 193.884 68.0897 196.995 71.2567 200.012C77.6964 205.573 86.0307 209.322 98.3245 209.322C110.032 209.322 118.961 207.42 125.108 203.615C131.255 199.81 134.33 194.687 134.33 188.248C134.33 181.223 129.938 176.097 121.156 172.877C112.375 169.365 101.691 166.585 89.1052 164.536C76.8112 162.487 64.3702 159.706 51.7835 156.194C39.1965 152.681 28.511 145.801 19.7294 135.556C10.9483 125.311 6.55859 111.698 6.55859 94.7211C6.55893 73.3534 15.0459 55.3513 32.0227 40.7157C49.0003 26.0799 71.248 18.7616 98.7632 18.7614Z" fill="white"/>
<path d="M65.0693 0H130.134V40.2779H65.0693V0Z" fill="white"/>
<path d="M65.0693 236.912H130.134V277.19H65.0693V236.912Z" fill="white"/>
<path d="M817.271 195.379C817.271 188.513 818.252 182.236 820.214 176.547C822.372 170.858 825.412 165.856 829.336 161.54C833.259 157.028 838.065 153.301 843.754 150.358C849.443 147.416 855.818 145.062 862.88 143.296C850.718 140.354 841.302 135.155 834.632 127.701C827.963 120.051 824.628 110.144 824.628 97.9819C824.628 88.5659 826.688 80.2288 830.807 72.9706C834.927 65.7124 840.615 59.6313 847.873 54.7271C855.132 49.6268 863.959 45.8015 874.356 43.2513C884.753 40.505 896.229 39.1318 908.783 39.1318C921.142 39.1318 932.421 40.505 942.622 43.2513C953.019 45.8015 961.846 49.6268 969.105 54.7271C976.559 59.6313 982.248 65.8105 986.171 73.2649C990.291 80.523 992.35 88.762 992.35 97.9819C992.35 110.34 989.015 120.247 982.346 127.701C975.872 135.155 966.358 140.354 953.804 143.296C968.32 146.631 979.599 152.712 987.642 161.54C995.881 170.171 1000 181.353 1000 195.084C1000 205.285 997.745 214.211 993.233 221.861C988.917 229.512 982.836 235.985 974.99 241.282C967.143 246.578 957.629 250.698 946.447 253.64C935.266 256.387 922.711 257.76 908.783 257.76C895.052 257.76 882.497 256.387 871.119 253.64C859.938 250.698 850.326 246.578 842.283 241.282C834.24 235.985 828.061 229.512 823.745 221.861C819.429 214.015 817.271 205.187 817.271 195.379ZM868.765 188.905C868.765 197.733 872.296 204.697 879.358 209.797C886.42 214.701 896.131 217.153 908.489 217.153C921.044 217.153 930.852 214.701 937.914 209.797C944.976 204.697 948.507 197.733 948.507 188.905C948.507 184.59 947.526 180.764 945.565 177.429C943.799 173.898 941.249 170.956 937.914 168.602C934.579 166.248 930.362 164.482 925.261 163.305C920.357 161.932 914.864 161.246 908.783 161.246C902.31 161.246 896.621 161.932 891.717 163.305C886.813 164.482 882.595 166.248 879.064 168.602C875.729 170.956 873.179 173.898 871.414 177.429C869.648 180.764 868.765 184.59 868.765 188.905ZM873.767 104.75C873.767 108.281 874.552 111.517 876.122 114.46C877.691 117.402 879.849 119.854 882.595 121.816C885.538 123.582 889.167 124.955 893.482 125.936C897.798 126.916 902.8 127.407 908.489 127.407C914.178 127.407 919.18 126.916 923.496 125.936C927.811 124.955 931.441 123.484 934.383 121.522C937.326 119.56 939.483 117.206 940.857 114.46C942.426 111.517 943.211 108.084 943.211 104.161C943.211 96.5106 940.17 90.5275 934.089 86.2119C928.204 81.8962 919.769 79.7384 908.783 79.7384C897.798 79.7384 889.167 81.9943 882.889 86.5061C876.808 90.8218 873.767 96.903 873.767 104.75Z" fill="white"/>
<path d="M800.535 253.636H755.221L754.338 227.154C749.237 237.354 741.979 245.005 732.563 250.105C723.343 255.206 712.848 257.756 701.078 257.756C690.682 257.756 681.168 255.794 672.536 251.871C664.101 247.751 656.843 241.964 650.762 234.51C644.877 227.056 640.267 218.228 636.932 208.028C633.597 197.631 631.93 186.057 631.93 173.306C631.93 160.555 633.597 148.981 636.932 138.584C640.267 128.188 644.975 119.36 651.056 112.102C657.137 104.648 664.395 98.9587 672.83 95.0354C681.266 90.9159 690.682 88.8562 701.078 88.8562C712.652 88.8562 722.951 91.4063 731.975 96.5067C741.195 101.607 748.257 108.865 753.161 118.281V37.6566H800.535V253.636ZM752.278 173.012C752.278 165.95 751.493 159.672 749.924 154.18C748.355 148.491 746.001 143.783 742.862 140.056C739.723 136.132 735.898 133.19 731.386 131.228C727.071 129.07 722.068 127.991 716.379 127.991C710.887 127.991 705.983 129.07 701.667 131.228C697.351 133.19 693.624 136.132 690.485 140.056C687.543 143.783 685.287 148.393 683.718 153.885C682.148 159.378 681.364 165.754 681.364 173.012C681.364 180.074 682.148 186.449 683.718 192.138C685.287 197.827 687.543 202.633 690.485 206.556C693.624 210.48 697.351 213.52 701.667 215.678C705.983 217.64 710.887 218.621 716.379 218.621C722.068 218.621 727.071 217.64 731.386 215.678C735.898 213.52 739.723 210.48 742.862 206.556C746.001 202.437 748.355 197.631 749.924 192.138C751.493 186.449 752.278 180.074 752.278 173.012Z" fill="white"/>
<path d="M467.772 198.907H516.324C516.912 206.95 519.757 213.129 524.857 217.445C529.957 221.76 537.314 223.918 546.926 223.918C550.457 223.918 553.694 223.624 556.636 223.035C559.775 222.251 562.423 221.27 564.581 220.093C566.935 218.72 568.7 217.052 569.877 215.091C571.25 213.129 571.937 210.775 571.937 208.029C571.937 204.89 570.956 202.34 568.995 200.378C567.033 198.22 564.385 196.553 561.05 195.376C557.715 194.003 553.694 192.924 548.986 192.139C544.278 191.158 539.079 190.276 533.39 189.491C526.721 188.51 519.659 187.137 512.204 185.371C504.946 183.606 498.178 181.056 491.901 177.721C485.82 174.19 480.818 169.58 476.894 163.891C472.971 158.006 471.009 150.356 471.009 140.94C471.009 133.093 472.48 126.031 475.423 119.754C478.562 113.28 483.172 107.787 489.253 103.276C495.334 98.5675 502.788 95.0365 511.616 92.6825C520.639 90.1324 531.036 88.8573 542.806 88.8573C554.772 88.8573 565.267 90.2305 574.291 92.9768C583.315 95.527 590.965 99.2541 597.243 104.158C603.52 109.062 608.424 115.046 611.955 122.108C615.682 129.17 617.938 137.212 618.723 146.236H570.172C569.387 138.782 566.542 132.995 561.638 128.875C556.93 124.756 550.457 122.696 542.218 122.696C538.294 122.696 534.96 123.186 532.213 124.167C529.467 124.952 527.211 126.031 525.446 127.404C523.68 128.581 522.307 130.052 521.326 131.818C520.541 133.583 520.149 135.545 520.149 137.703C520.149 140.841 521.13 143.49 523.091 145.648C525.053 147.609 527.701 149.277 531.036 150.65C534.371 152.023 538.294 153.2 542.806 154.181C547.318 154.966 552.124 155.75 557.225 156.535C564.483 157.516 571.839 158.889 579.293 160.654C586.944 162.42 593.81 165.068 599.891 168.599C606.168 171.934 611.268 176.642 615.192 182.723C619.311 188.608 621.371 196.357 621.371 205.969C621.371 214.6 619.606 222.153 616.075 228.626C612.74 234.903 607.836 240.298 601.362 244.81C594.889 249.126 587.042 252.362 577.822 254.52C568.602 256.678 558.303 257.757 546.926 257.757C534.371 257.757 523.19 256.384 513.381 253.637C503.769 250.891 495.628 247.066 488.958 242.162C482.485 237.061 477.483 230.882 473.952 223.624C470.421 216.366 468.361 208.127 467.772 198.907Z" fill="white"/>
<path d="M271.126 175.949V43.2418H321.443V174.183C321.443 187.915 324.876 198.41 331.742 205.668C338.804 212.926 348.906 216.555 362.049 216.555C374.996 216.555 384.903 212.926 391.769 205.668C398.831 198.41 402.362 187.915 402.362 174.183V43.2418H452.678V175.949C452.678 188.7 450.521 200.077 446.205 210.082C441.889 220.086 435.808 228.718 427.961 235.976C420.311 243.038 410.797 248.432 399.419 252.159C388.238 255.887 375.683 257.75 361.755 257.75C347.827 257.75 335.273 255.887 324.091 252.159C313.106 248.432 303.69 243.038 295.843 235.976C287.996 228.718 281.915 220.086 277.599 210.082C273.284 200.077 271.126 188.7 271.126 175.949Z" fill="white"/>
</svg>
